<?xml version="1.0" encoding="UTF-8" standalone="no"?>
<svg
   xmlns:dc="http://purl.org/dc/elements/1.1/"
   xmlns:cc="http://creativecommons.org/ns#"
   xmlns:rdf="http://www.w3.org/1999/02/22-rdf-syntax-ns#"
   xmlns:svg="http://www.w3.org/2000/svg"
   xmlns="http://www.w3.org/2000/svg"
   xmlns:sodipodi="http://sodipodi.sourceforge.net/DTD/sodipodi-0.dtd"
   xmlns:inkscape="http://www.inkscape.org/namespaces/inkscape"
   inkscape:version="1.0 (4035a4fb49, 2020-05-01)"
   sodipodi:docname="official_fb_icon.svg"
   xml:space="preserve"
   style="enable-background:new 0 0 1024 1024;"
   viewBox="0 0 1024 1024"
   y="0px"
   x="0px"
   id="Ebene_1"
   version="1.1"><metadata
   id="metadata15"><rdf:RDF><cc:Work
       rdf:about=""><dc:format>image/svg+xml</dc:format><dc:type
         rdf:resource="http://purl.org/dc/dcmitype/StillImage" /></cc:Work></rdf:RDF></metadata><defs
   id="defs13" /><sodipodi:namedview
   inkscape:current-layer="g8"
   inkscape:window-maximized="0"
   inkscape:window-y="0"
   inkscape:window-x="0"
   inkscape:cy="512"
   inkscape:cx="512"
   inkscape:zoom="0.71777344"
   showgrid="false"
   id="namedview11"
   inkscape:window-height="1008"
   inkscape:window-width="1882"
   inkscape:pageshadow="2"
   inkscape:pageopacity="0"
   guidetolerance="10"
   gridtolerance="10"
   objecttolerance="10"
   borderopacity="1"
   bordercolor="#666666"
   pagecolor="#ffffff" />
<style
   id="style2"
   type="text/css">
	.st0{fill:#FFFFFF;}
</style>
<g
   id="g8">
	<path
   style="fill:#2fb000;fill-opacity:1"
   id="path4"
   d="M1024,512C1024,229.23,794.77,0,512,0S0,229.23,0,512c0,255.55,187.23,467.37,432,505.78V660H302V512h130V399.2   C432,270.88,508.44,200,625.39,200C681.41,200,740,210,740,210v126h-64.56c-63.6,0-83.44,39.47-83.44,79.96V512h142l-22.7,148H592   v357.78C836.77,979.37,1024,767.55,1024,512z" />
	<path
   id="path6"
   d="M711.3,660L734,512H592v-96.04c0-40.49,19.84-79.96,83.44-79.96H740V210c0,0-58.59-10-114.61-10   C508.44,200,432,270.88,432,399.2V512H302v148h130v357.78c26.07,4.09,52.78,6.22,80,6.22s53.93-2.13,80-6.22V660H711.3z"
   class="st0" />
</g>
</svg>
