<?xml version="1.0" encoding="UTF-8" standalone="no"?>
<svg
   xmlns:dc="http://purl.org/dc/elements/1.1/"
   xmlns:cc="http://creativecommons.org/ns#"
   xmlns:rdf="http://www.w3.org/1999/02/22-rdf-syntax-ns#"
   xmlns:svg="http://www.w3.org/2000/svg"
   xmlns="http://www.w3.org/2000/svg"
   xmlns:sodipodi="http://sodipodi.sourceforge.net/DTD/sodipodi-0.dtd"
   xmlns:inkscape="http://www.inkscape.org/namespaces/inkscape"
   inkscape:version="1.0 (4035a4fb49, 2020-05-01)"
   sodipodi:docname="official_insta_icon.svg"
   xml:space="preserve"
   style="enable-background:new 0 0 512 512;"
   viewBox="0 0 512 512"
   y="0px"
   x="0px"
   id="Logo"
   version="1.1"><metadata
   id="metadata15"><rdf:RDF><cc:Work
       rdf:about=""><dc:format>image/svg+xml</dc:format><dc:type
         rdf:resource="http://purl.org/dc/dcmitype/StillImage" /></cc:Work></rdf:RDF></metadata><defs
   id="defs13" /><sodipodi:namedview
   inkscape:current-layer="g8"
   inkscape:window-maximized="0"
   inkscape:window-y="0"
   inkscape:window-x="0"
   inkscape:cy="256"
   inkscape:cx="256"
   inkscape:zoom="1.4355469"
   showgrid="false"
   id="namedview11"
   inkscape:window-height="977"
   inkscape:window-width="1886"
   inkscape:pageshadow="2"
   inkscape:pageopacity="0"
   guidetolerance="10"
   gridtolerance="10"
   objecttolerance="10"
   borderopacity="1"
   bordercolor="#666666"
   pagecolor="#ffffff" />
<g
   id="g8">
	<path
   style="fill:#2fb000;fill-opacity:1"
   id="path2"
   d="M256,49.47c67.27,0,75.23,0.26,101.8,1.47c24.56,1.12,37.9,5.22,46.78,8.67c11.76,4.57,20.15,10.03,28.97,18.84   c8.82,8.82,14.28,17.21,18.84,28.97c3.45,8.88,7.55,22.22,8.67,46.78c1.21,26.56,1.47,34.53,1.47,101.8s-0.26,75.23-1.47,101.8   c-1.12,24.56-5.22,37.9-8.67,46.78c-4.57,11.76-10.03,20.15-18.84,28.97c-8.82,8.82-17.21,14.28-28.97,18.84   c-8.88,3.45-22.22,7.55-46.78,8.67c-26.56,1.21-34.53,1.47-101.8,1.47s-75.24-0.26-101.8-1.47c-24.56-1.12-37.9-5.22-46.78-8.67   c-11.76-4.57-20.15-10.03-28.97-18.84c-8.82-8.82-14.28-17.21-18.84-28.97c-3.45-8.88-7.55-22.22-8.67-46.78   c-1.21-26.56-1.47-34.53-1.47-101.8s0.26-75.23,1.47-101.8c1.12-24.56,5.22-37.9,8.67-46.78c4.57-11.76,10.03-20.15,18.84-28.97   c8.82-8.82,17.21-14.28,28.97-18.84c8.88-3.45,22.22-7.55,46.78-8.67C180.77,49.73,188.73,49.47,256,49.47 M256,4.08   c-68.42,0-77,0.29-103.87,1.52c-26.81,1.22-45.13,5.48-61.15,11.71c-16.57,6.44-30.62,15.05-44.62,29.06   C32.36,60.37,23.74,74.42,17.3,90.98c-6.23,16.02-10.49,34.34-11.71,61.15C4.37,179,4.08,187.58,4.08,256   c0,68.42,0.29,77,1.52,103.87c1.22,26.81,5.48,45.13,11.71,61.15c6.44,16.57,15.05,30.62,29.06,44.62   c14.01,14.01,28.05,22.62,44.62,29.06c16.02,6.23,34.34,10.49,61.15,11.71c26.87,1.23,35.45,1.52,103.87,1.52s77-0.29,103.87-1.52   c26.81-1.22,45.13-5.48,61.15-11.71c16.57-6.44,30.62-15.05,44.62-29.06c14.01-14.01,22.62-28.05,29.06-44.62   c6.23-16.02,10.49-34.34,11.71-61.15c1.23-26.87,1.52-35.45,1.52-103.87s-0.29-77-1.52-103.87c-1.22-26.81-5.48-45.13-11.71-61.15   c-6.44-16.57-15.05-30.62-29.06-44.62c-14.01-14.01-28.05-22.62-44.62-29.06c-16.02-6.23-34.34-10.49-61.15-11.71   C333,4.37,324.42,4.08,256,4.08L256,4.08z" />
	<path
   style="fill:#2fb000;fill-opacity:1"
   id="path4"
   d="M256,126.64c-71.45,0-129.36,57.92-129.36,129.36S184.55,385.36,256,385.36S385.36,327.45,385.36,256   S327.45,126.64,256,126.64z M256,339.97c-46.38,0-83.97-37.6-83.97-83.97s37.6-83.97,83.97-83.97c46.38,0,83.97,37.6,83.97,83.97   S302.38,339.97,256,339.97z" />
	<circle
   style="fill:#2fb000;fill-opacity:1"
   id="circle6"
   r="30.23"
   cy="121.52"
   cx="390.48" />
</g>
</svg>
