<?xml version="1.0" encoding="UTF-8" standalone="no"?>
<svg
   xmlns:dc="http://purl.org/dc/elements/1.1/"
   xmlns:cc="http://creativecommons.org/ns#"
   xmlns:rdf="http://www.w3.org/1999/02/22-rdf-syntax-ns#"
   xmlns:svg="http://www.w3.org/2000/svg"
   xmlns="http://www.w3.org/2000/svg"
   xmlns:xlink="http://www.w3.org/1999/xlink"
   xmlns:sodipodi="http://sodipodi.sourceforge.net/DTD/sodipodi-0.dtd"
   xmlns:inkscape="http://www.inkscape.org/namespaces/inkscape"
   sodipodi:docname="logo.svg"
   inkscape:version="1.0 (4035a4fb49, 2020-05-01)"
   id="svg8"
   version="1.1"
   viewBox="0 0 174.74082 174.74083"
   height="660.43774"
   width="660.43774">
  <defs
     id="defs2">
    <linearGradient
       id="linearGradient884"
       inkscape:collect="always">
      <stop
         id="stop880"
         offset="0"
         style="stop-color:#ecf07d;stop-opacity:1" />
      <stop
         id="stop882"
         offset="1"
         style="stop-color:#ffffff;stop-opacity:1" />
    </linearGradient>
    <linearGradient
       id="linearGradient866"
       inkscape:collect="always">
      <stop
         id="stop862"
         offset="0"
         style="stop-color:#2fb000;stop-opacity:1" />
      <stop
         id="stop864"
         offset="1"
         style="stop-color:#ecf000;stop-opacity:1" />
    </linearGradient>
    <linearGradient
       gradientTransform="matrix(0,1.172043,-1.172043,0,-93.935623,68.080418)"
       gradientUnits="userSpaceOnUse"
       y2="-26.193748"
       x2="0.31800109"
       y1="-26.193748"
       x1="-145.04507"
       id="linearGradient868"
       xlink:href="#linearGradient866"
       inkscape:collect="always" />
    <linearGradient
       gradientTransform="matrix(0.99709031,0,0,0.99709031,45.853507,80.383294)"
       gradientUnits="userSpaceOnUse"
       y2="-17.197918"
       x2="-7.6729202"
       y1="-17.197918"
       x1="-118.79792"
       id="linearGradient886"
       xlink:href="#linearGradient884"
       inkscape:collect="always" />
    <filter
       inkscape:collect="always"
       style="color-interpolation-filters:sRGB"
       id="filter1616"
       x="-4.8000006e-06"
       width="1.0000097"
       y="-4.8000006e-06"
       height="1.0000097">
      <feGaussianBlur
         inkscape:collect="always"
         stdDeviation="0.00034607504"
         id="feGaussianBlur1618" />
    </filter>
    <filter
       inkscape:collect="always"
       style="color-interpolation-filters:sRGB"
       id="filter1912"
       x="-0.0057039969"
       width="1.011408"
       y="-0.0070078927"
       height="1.0140158">
      <feGaussianBlur
         inkscape:collect="always"
         stdDeviation="0.3243852"
         id="feGaussianBlur1914" />
    </filter>
    <linearGradient
       y2="-26.193748"
       x2="0.31800109"
       y1="-26.193748"
       x1="-145.04507"
       gradientTransform="matrix(0,1.172043,-1.172043,0,-93.935623,68.080418)"
       gradientUnits="userSpaceOnUse"
       id="linearGradient1364"
       xlink:href="#linearGradient866"
       inkscape:collect="always" />
    <clipPath
       id="clipPath1366"
       clipPathUnits="userSpaceOnUse">
      <circle
         r="87.370407"
         cy="-18.260515"
         cx="-63.842869"
         id="circle1368"
         style="opacity:0.9945;fill:#f28c38;stroke:#f28c38;stroke-width:0.132292" />
    </clipPath>
  </defs>
  <sodipodi:namedview
     fit-margin-bottom="0"
     fit-margin-right="0"
     fit-margin-left="0"
     fit-margin-top="0"
     units="px"
     inkscape:window-maximized="0"
     inkscape:window-y="0"
     inkscape:window-x="521"
     inkscape:window-height="1008"
     inkscape:window-width="1350"
     showborder="false"
     showgrid="false"
     inkscape:document-rotation="0"
     inkscape:current-layer="g972"
     inkscape:document-units="px"
     inkscape:cy="339.3853"
     inkscape:cx="375.1771"
     inkscape:zoom="1"
     inkscape:pageshadow="2"
     inkscape:pageopacity="0.0"
     borderopacity="1.0"
     bordercolor="#666666"
     pagecolor="#ffffff"
     id="base"
     showguides="true"
     inkscape:guide-bbox="true" />
  <metadata
     id="metadata5">
    <rdf:RDF>
      <cc:Work
         rdf:about="">
        <dc:format>image/svg+xml</dc:format>
        <dc:type
           rdf:resource="http://purl.org/dc/dcmitype/StillImage" />
        <dc:title></dc:title>
      </cc:Work>
    </rdf:RDF>
  </metadata>
  <g
     transform="translate(162.10284,113.4461)"
     id="layer1"
     inkscape:groupmode="layer"
     inkscape:label="Layer 1">
    <g
       id="g972">
      <g
         id="g1441">
        <g
           transform="translate(-10.889568,-7.8151772)"
           id="g2446"
           style="opacity:0.9945"
           clip-path="url(#clipPath1366)">
          <path
             id="path859"
             style="mix-blend-mode:normal;fill:url(#linearGradient1364);fill-opacity:1;fill-rule:nonzero;stroke:none;stroke-width:0.745419;stroke-miterlimit:4;stroke-dasharray:none;stroke-opacity:1;filter:url(#filter1616)"
             d="m -63.235427,69.320831 a 86.518748,86.518748 0 0 1 -86.518743,-86.518748 86.518748,86.518748 0 0 1 86.518743,-86.518753 86.518748,86.518748 0 0 1 86.518754,86.518753 86.518748,86.518748 0 0 1 -86.518754,86.518748 z" />
          <path
             id="path870"
             style="fill:url(#linearGradient886);fill-opacity:1;stroke:none;stroke-width:0.605324;stroke-miterlimit:4;stroke-dasharray:none;stroke-opacity:1"
             transform="rotate(90)"
             d="M 38.202915,63.23542 A 55.400833,55.400833 0 0 1 -17.197918,118.63625 55.400833,55.400833 0 0 1 -72.598751,63.23542 55.400833,55.400833 0 0 1 -17.197918,7.8345871 55.400833,55.400833 0 0 1 38.202915,63.23542" />
          <g
             style="font-style:normal;font-variant:normal;font-weight:normal;font-stretch:normal;font-size:17.7823px;line-height:19.0525px;font-family:Bahnschrift;-inkscape-font-specification:'Bahnschrift, @wght=502,wdth=100.0';font-variant-ligatures:normal;font-variant-caps:normal;font-variant-numeric:normal;font-variant-east-asian:normal;font-variation-settings:'wdth' 100, 'wght' 502;letter-spacing:0px;word-spacing:0px;fill:#4d4d4d;fill-opacity:0.558824;stroke:none;stroke-width:0.333419;filter:url(#filter1912)"
             id="text890"
             transform="matrix(0.73638105,0.88738846,-0.88738846,0.73638105,-31.789886,51.394312)"
             aria-label="THE AMINA AGBO FOUNDATION">
            <path
               id="path1443"
               style="font-style:normal;font-variant:normal;font-weight:normal;font-stretch:normal;font-size:17.7823px;font-family:Bahnschrift;-inkscape-font-specification:'Bahnschrift, @wght=502,wdth=100.0';font-variant-ligatures:normal;font-variant-caps:normal;font-variant-numeric:normal;font-variant-east-asian:normal;font-variation-settings:'wdth' 100, 'wght' 502;fill:#4d4d4d;fill-opacity:0.558824;stroke-width:0.333419"
               d="m -67.473367,49.672046 -1.921467,-0.153317 0.921973,-11.554766 1.921467,0.153317 z m 3.440505,1.311056 -8.966844,-0.715478 0.146411,-1.834915 8.966844,0.715479 z" />
            <path
               id="path1445"
               style="font-style:normal;font-variant:normal;font-weight:normal;font-stretch:normal;font-size:17.7823px;font-family:Bahnschrift;-inkscape-font-specification:'Bahnschrift, @wght=502,wdth=100.0';font-variant-ligatures:normal;font-variant-caps:normal;font-variant-numeric:normal;font-variant-east-asian:normal;font-variation-settings:'wdth' 100, 'wght' 502;fill:#4d4d4d;fill-opacity:0.558824;stroke-width:0.333419"
               d="m -83.87384,47.68847 -1.857927,-0.513466 3.362975,-12.168584 1.857926,0.513466 z m 6.845874,1.891963 -1.857927,-0.513467 3.362975,-12.168584 1.857927,0.513467 z m 0.39658,-5.574604 -6.837506,-1.88965 0.490338,-1.774236 6.837505,1.889649 z" />
            <path
               id="path1447"
               style="font-style:normal;font-variant:normal;font-weight:normal;font-stretch:normal;font-size:17.7823px;font-family:Bahnschrift;-inkscape-font-specification:'Bahnschrift, @wght=502,wdth=100.0';font-variant-ligatures:normal;font-variant-caps:normal;font-variant-numeric:normal;font-variant-east-asian:normal;font-variation-settings:'wdth' 100, 'wght' 502;fill:#4d4d4d;fill-opacity:0.558824;stroke-width:0.333419"
               d="m -90.993962,45.03741 -1.713411,-0.883042 5.783529,-11.222069 1.713411,0.883042 z m 4.176174,-9.979628 -6.521766,-3.361129 0.843266,-1.63623 6.521766,3.361129 z m -2.450243,4.754329 -5.672779,-2.923585 0.843266,-1.636231 5.672779,2.923586 z m -2.490019,4.83151 -6.521767,-3.361129 0.843266,-1.63623 6.521766,3.361129 z" />
            <path
               id="path1449"
               style="font-style:normal;font-variant:normal;font-weight:normal;font-stretch:normal;font-size:17.7823px;font-family:Bahnschrift;-inkscape-font-specification:'Bahnschrift, @wght=502,wdth=100.0';font-variant-ligatures:normal;font-variant-caps:normal;font-variant-numeric:normal;font-variant-east-asian:normal;font-variation-settings:'wdth' 100, 'wght' 502;fill:#4d4d4d;fill-opacity:0.558824;stroke-width:0.333419"
               d="m -109.62614,32.561381 -1.09329,-1.042707 5.31395,-12.377857 1.5017,1.432224 -4.30943,9.412356 9.197816,-4.750137 1.501702,1.432224 z m 7.47885,-4.205839 -4.80671,-4.584316 1.27043,-1.332054 4.8067,4.584316 z" />
            <path
               id="path1451"
               style="font-style:normal;font-variant:normal;font-weight:normal;font-stretch:normal;font-size:17.7823px;font-family:Bahnschrift;-inkscape-font-specification:'Bahnschrift, @wght=502,wdth=100.0';font-variant-ligatures:normal;font-variant-caps:normal;font-variant-numeric:normal;font-variant-east-asian:normal;font-variation-settings:'wdth' 100, 'wght' 502;fill:#4d4d4d;fill-opacity:0.558824;stroke-width:0.333419"
               d="m -121.98619,17.275197 -1.115,-1.698482 10.55381,-6.9282753 1.01018,1.5387953 -7.97706,5.236709 0.41689,-0.377543 7.72469,-1.57077 0.80052,1.219423 -4.36793,6.36768 -0.65736,0.327673 7.97706,-5.236709 1.01017,1.538796 -10.55381,6.928275 -1.11501,-1.698482 5.15085,-7.421747 z" />
            <path
               id="path1453"
               style="font-style:normal;font-variant:normal;font-weight:normal;font-stretch:normal;font-size:17.7823px;font-family:Bahnschrift;-inkscape-font-specification:'Bahnschrift, @wght=502,wdth=100.0';font-variant-ligatures:normal;font-variant-caps:normal;font-variant-numeric:normal;font-variant-east-asian:normal;font-variation-settings:'wdth' 100, 'wght' 502;fill:#4d4d4d;fill-opacity:0.558824;stroke-width:0.333419"
               d="m -114.42754,4.0429358 0.77769,1.7826925 -11.57159,5.0480167 -0.77769,-1.7826925 z" />
            <path
               id="path1455"
               style="font-style:normal;font-variant:normal;font-weight:normal;font-stretch:normal;font-size:17.7823px;font-family:Bahnschrift;-inkscape-font-specification:'Bahnschrift, @wght=502,wdth=100.0';font-variant-ligatures:normal;font-variant-caps:normal;font-variant-numeric:normal;font-variant-east-asian:normal;font-variation-settings:'wdth' 100, 'wght' 502;fill:#4d4d4d;fill-opacity:0.558824;stroke-width:0.333419"
               d="m -127.89588,4.4834669 -0.48861,-1.8735926 7.95474,-8.0685723 0.27103,0.1446743 -9.63682,2.5131643 -0.47546,-1.823182 12.20775,-3.1836336 0.493,1.8903961 -7.81629,8.0145205 -0.27103,-0.1446743 9.49399,-2.47591602 0.47546,1.82318202 z" />
            <path
               id="path1457"
               style="font-style:normal;font-variant:normal;font-weight:normal;font-stretch:normal;font-size:17.7823px;font-family:Bahnschrift;-inkscape-font-specification:'Bahnschrift, @wght=502,wdth=100.0';font-variant-ligatures:normal;font-variant-caps:normal;font-variant-numeric:normal;font-variant-east-asian:normal;font-variation-settings:'wdth' 100, 'wght' 502;fill:#4d4d4d;fill-opacity:0.558824;stroke-width:0.333419"
               d="m -131.17489,-13.670062 -0.0608,-1.509576 12.42538,-5.20184 0.0835,2.073498 -9.64156,3.768821 9.91353,2.980892 0.0835,2.0734986 z m 8.29959,2.176942 -0.26742,-6.63693 1.83925,-0.07411 0.26742,6.636929 z" />
            <path
               id="path1459"
               style="font-style:normal;font-variant:normal;font-weight:normal;font-stretch:normal;font-size:17.7823px;font-family:Bahnschrift;-inkscape-font-specification:'Bahnschrift, @wght=502,wdth=100.0';font-variant-ligatures:normal;font-variant-caps:normal;font-variant-numeric:normal;font-variant-east-asian:normal;font-variation-settings:'wdth' 100, 'wght' 502;fill:#4d4d4d;fill-opacity:0.558824;stroke-width:0.333419"
               d="m -129.3029,-33.4615 0.36928,-1.464976 13.38996,-1.469107 -0.50722,2.012237 -10.31423,0.883342 8.6631,5.666953 -0.50723,2.012237 z m 7.343,4.438758 1.62354,-6.440842 1.78492,0.449922 -1.62355,6.440843 z" />
            <path
               id="path1461"
               style="font-style:normal;font-variant:normal;font-weight:normal;font-stretch:normal;font-size:17.7823px;font-family:Bahnschrift;-inkscape-font-specification:'Bahnschrift, @wght=502,wdth=100.0';font-variant-ligatures:normal;font-variant-caps:normal;font-variant-numeric:normal;font-variant-east-asian:normal;font-variation-settings:'wdth' 100, 'wght' 502;fill:#4d4d4d;fill-opacity:0.558824;stroke-width:0.333419"
               d="m -117.39815,-48.27876 2.05019,0.985793 q 1.26768,0.609536 1.9972,1.576906 0.72546,0.955782 0.81735,2.127183 0.0878,1.159813 -0.49161,2.364891 -0.58319,1.212903 -1.52016,1.899233 -0.9448,0.682567 -2.09709,0.754746 -1.14852,0.06435 -2.34577,-0.511319 l -3.35701,-1.614141 q -1.26768,-0.609536 -1.99313,-1.565318 -0.7217,-0.963608 -0.80952,-2.123421 -0.0919,-1.171401 0.48754,-2.376479 0.47408,-0.985973 1.29924,-1.620089 0.81733,-0.637878 1.85134,-0.824735 1.03777,-0.194681 2.14128,0.09506 v 0 l -0.90301,1.878044 v 0 q -0.58043,-0.115301 -1.10248,0.02869 -0.52987,0.140229 -0.93244,0.47655 -0.40257,0.336321 -0.62457,0.798006 -0.32358,0.672966 -0.25514,1.332106 0.0722,0.651314 0.50799,1.207688 0.43955,0.548549 1.19077,0.909755 l 3.357,1.614142 q 0.68079,0.327343 1.33271,0.293966 0.65191,-0.03338 1.18195,-0.414387 0.5338,-0.388835 0.86114,-1.069625 0.32358,-0.672966 0.27079,-1.32458 -0.0528,-0.651615 -0.48451,-1.196401 -0.43173,-0.544786 -1.20642,-0.917281 l -0.41473,-0.199416 -1.03847,2.159751 -1.66677,-0.801427 z" />
            <path
               id="path1463"
               style="font-style:normal;font-variant:normal;font-weight:normal;font-stretch:normal;font-size:17.7823px;font-family:Bahnschrift;-inkscape-font-specification:'Bahnschrift, @wght=502,wdth=100.0';font-variant-ligatures:normal;font-variant-caps:normal;font-variant-numeric:normal;font-variant-east-asian:normal;font-variation-settings:'wdth' 100, 'wght' 502;fill:#4d4d4d;fill-opacity:0.558824;stroke-width:0.333419"
               d="m -110.59417,-49.442807 2.17049,-2.843599 q 0.73227,-0.95937 0.70036,-1.704647 -0.0388,-0.750546 -0.7359,-1.282631 l -0.0207,-0.01581 q -0.47623,-0.363503 -0.94613,-0.449095 -0.47153,-0.09776 -0.9302,0.131068 -0.46029,0.216661 -0.88175,0.768816 l -2.36541,3.098971 -1.40799,-1.074706 2.36541,-3.098972 q 0.55842,-0.731605 0.49781,-1.367719 -0.0623,-0.648283 -0.73174,-1.159295 v 0 q -0.6902,-0.526817 -1.35138,-0.376109 -0.65592,0.143806 -1.2723,0.951333 l -2.25477,2.95403 -1.43561,-1.095779 2.41282,-3.161089 q 0.74282,-0.973173 1.57985,-1.382888 0.83541,-0.421884 1.69565,-0.289578 0.86024,0.132306 1.70918,0.780291 v 0 q 0.53835,0.410917 0.83584,0.965674 0.29058,0.549489 0.27981,1.207575 -0.006,0.651185 -0.36394,1.349748 0.56386,-0.552688 1.24448,-0.743174 0.67373,-0.195754 1.36359,-0.04058 0.68823,0.143009 1.3025,0.611876 l 0.0207,0.0158 q 0.82824,0.632181 1.17547,1.465217 0.34033,0.827768 0.16224,1.762298 -0.18499,0.929263 -0.88039,1.840319 l -2.50238,3.278422 z m -9.232,-5.735906 1.16427,-1.525329 10.03542,7.659919 -1.16427,1.525328 z" />
            <path
               id="path1465"
               style="font-style:normal;font-variant:normal;font-weight:normal;font-stretch:normal;font-size:17.7823px;font-family:Bahnschrift;-inkscape-font-specification:'Bahnschrift, @wght=502,wdth=100.0';font-variant-ligatures:normal;font-variant-caps:normal;font-variant-numeric:normal;font-variant-east-asian:normal;font-variation-settings:'wdth' 100, 'wght' 502;fill:#4d4d4d;fill-opacity:0.558824;stroke-width:0.333419"
               d="m -99.446249,-58.955656 q -1.010001,0.876269 -2.152891,1.109147 -1.14858,0.226319 -2.25682,-0.203093 -1.11393,-0.435971 -2.02433,-1.485327 l -2.34431,-2.702092 q -0.91041,-1.049356 -1.17916,-2.207096 -0.27445,-1.164298 0.11735,-2.262894 0.38611,-1.105155 1.39611,-1.981424 1.01001,-0.87627 2.15858,-1.102589 1.14289,-0.232877 2.25682,0.203093 1.10824,0.429412 2.01865,1.478768 l 2.344303,2.702093 q 0.91041,1.049356 1.184855,2.213654 0.268754,1.157739 -0.117354,2.262894 -0.391797,1.098597 -1.401803,1.974866 z m -1.251811,-1.442865 q 0.56403,-0.489345 0.774106,-1.108421 0.216637,-0.624766 0.04788,-1.283012 -0.167886,-0.670494 -0.691376,-1.273873 l -2.42396,-2.793911 q -0.52349,-0.60338 -1.1579,-0.857631 -0.63354,-0.2665 -1.28262,-0.140178 -0.64253,0.120631 -1.20655,0.609976 -0.56403,0.489346 -0.78067,1.114112 -0.21008,0.619076 -0.0422,1.28957 0.16876,0.658245 0.69224,1.261625 l 2.42397,2.793911 q 0.52348,0.60338 1.15702,0.86988 0.63441,0.254251 1.27694,0.133619 0.64908,-0.126322 1.21311,-0.615667 z" />
            <path
               id="path1467"
               style="font-style:normal;font-variant:normal;font-weight:normal;font-stretch:normal;font-size:17.7823px;font-family:Bahnschrift;-inkscape-font-specification:'Bahnschrift, @wght=502,wdth=100.0';font-variant-ligatures:normal;font-variant-caps:normal;font-variant-numeric:normal;font-variant-east-asian:normal;font-variation-settings:'wdth' 100, 'wght' 502;fill:#4d4d4d;fill-opacity:0.558824;stroke-width:0.333419"
               d="m -94.999836,-77.463681 1.748113,-0.812182 5.319428,11.449355 -1.748114,0.812182 z m 3.125206,4.665884 5.630185,-2.615812 0.775597,1.66937 -5.630185,2.615812 z m -2.337768,-5.031731 6.496367,-3.018245 0.775598,1.669369 -6.496367,3.018245 z" />
            <path
               id="path1469"
               style="font-style:normal;font-variant:normal;font-weight:normal;font-stretch:normal;font-size:17.7823px;font-family:Bahnschrift;-inkscape-font-specification:'Bahnschrift, @wght=502,wdth=100.0';font-variant-ligatures:normal;font-variant-caps:normal;font-variant-numeric:normal;font-variant-east-asian:normal;font-variation-settings:'wdth' 100, 'wght' 502;fill:#4d4d4d;fill-opacity:0.558824;stroke-width:0.333419"
               d="m -76.437776,-70.882116 q -1.29773,0.322266 -2.421782,0.01094 -1.126144,-0.319758 -1.91867,-1.205474 -0.794619,-0.894142 -1.129441,-2.242433 l -0.862169,-3.471849 q -0.334823,-1.34829 -0.04872,-2.501864 0.284014,-1.162001 1.131837,-1.96301 0.845731,-0.809436 2.143461,-1.131703 1.297729,-0.322266 2.423874,-0.0025 1.124052,0.311331 1.91867,1.205474 0.792526,0.885715 1.127349,2.234006 l 0.862169,3.471849 q 0.334822,1.34829 0.05081,2.510291 -0.286106,1.153574 -1.131837,1.96301 -0.847823,0.801009 -2.145553,1.123276 z m -0.460381,-1.8539 q 0.724706,-0.179967 1.192929,-0.636208 0.476649,-0.458333 0.625103,-1.121453 0.154788,-0.673639 -0.03773,-1.448906 l -0.891466,-3.589824 q -0.192523,-0.775268 -0.642373,-1.28981 -0.443516,-0.525061 -1.079206,-0.707166 -0.627264,-0.184197 -1.35197,-0.0042 -0.724706,0.179967 -1.201356,0.638301 -0.468223,0.45624 -0.623011,1.12988 -0.148453,0.663119 0.04407,1.438386 l 0.891465,3.589824 q 0.192523,0.775268 0.63604,1.300329 0.44985,0.514542 1.077113,0.698739 0.635691,0.182105 1.360397,0.0021 z" />
            <path
               id="path1471"
               style="font-style:normal;font-variant:normal;font-weight:normal;font-stretch:normal;font-size:17.7823px;font-family:Bahnschrift;-inkscape-font-specification:'Bahnschrift, @wght=502,wdth=100.0';font-variant-ligatures:normal;font-variant-caps:normal;font-variant-numeric:normal;font-variant-east-asian:normal;font-variation-settings:'wdth' 100, 'wght' 502;fill:#4d4d4d;fill-opacity:0.558824;stroke-width:0.333419"
               d="m -65.363947,-72.428339 q -1.414197,0.05564 -2.442123,-0.451357 -1.019592,-0.516013 -1.590134,-1.544993 -0.562207,-1.037998 -0.620576,-2.521603 l -0.316766,-8.051376 1.926083,-0.07578 0.319156,8.112108 q 0.0512,1.301408 0.738912,1.995578 0.696047,0.685153 1.910694,0.637365 1.223323,-0.04813 1.863389,-0.785849 0.639725,-0.746395 0.588523,-2.047803 l -0.319155,-8.112109 1.926083,-0.07578 0.316766,8.051376 q 0.05837,1.483605 -0.429225,2.562905 -0.479261,1.070283 -1.463837,1.665146 -0.984918,0.586187 -2.40779,0.642168 z" />
            <path
               id="path1473"
               style="font-style:normal;font-variant:normal;font-weight:normal;font-stretch:normal;font-size:17.7823px;font-family:Bahnschrift;-inkscape-font-specification:'Bahnschrift, @wght=502,wdth=100.0';font-variant-ligatures:normal;font-variant-caps:normal;font-variant-numeric:normal;font-variant-east-asian:normal;font-variation-settings:'wdth' 100, 'wght' 502;fill:#4d4d4d;fill-opacity:0.558824;stroke-width:0.333419"
               d="m -55.944557,-85.001262 1.906519,0.338043 4.011701,10.596505 -0.244599,0.185903 1.738721,-9.806178 1.855223,0.328947 -2.202582,12.422299 -1.923618,-0.341074 -4.020372,-10.448133 0.244599,-0.185904 -1.712951,9.660838 -1.855223,-0.328947 z" />
            <path
               id="path1475"
               style="font-style:normal;font-variant:normal;font-weight:normal;font-stretch:normal;font-size:17.7823px;font-family:Bahnschrift;-inkscape-font-specification:'Bahnschrift, @wght=502,wdth=100.0';font-variant-ligatures:normal;font-variant-caps:normal;font-variant-numeric:normal;font-variant-east-asian:normal;font-variation-settings:'wdth' 100, 'wght' 502;fill:#4d4d4d;fill-opacity:0.558824;stroke-width:0.333419"
               d="m -44.130427,-71.249083 2.682364,1.102348 q 1.236779,0.508269 2.176851,0.162386 0.943373,-0.353914 1.418637,-1.510382 l 1.412591,-3.437281 q 0.475264,-1.156469 0.05006,-2.063427 -0.421903,-0.914989 -1.658682,-1.423258 l -2.682364,-1.102348 0.699694,-1.702579 2.634179,1.082546 q 1.421492,0.584179 2.224044,1.486627 0.802552,0.902449 0.938416,2.056608 0.143896,1.15746 -0.400677,2.48258 l -1.359783,3.308785 q -0.537973,1.309058 -1.446142,2.03416 -0.908169,0.725102 -2.124706,0.807169 -1.208507,0.08537 -2.63803,-0.50211 l -2.626147,-1.079246 z m 2.99087,-10.430002 1.782889,0.732699 -4.798847,11.677119 -1.782889,-0.732699 z" />
            <path
               id="path1477"
               style="font-style:normal;font-variant:normal;font-weight:normal;font-stretch:normal;font-size:17.7823px;font-family:Bahnschrift;-inkscape-font-specification:'Bahnschrift, @wght=502,wdth=100.0';font-variant-ligatures:normal;font-variant-caps:normal;font-variant-numeric:normal;font-variant-east-asian:normal;font-variation-settings:'wdth' 100, 'wght' 502;fill:#4d4d4d;fill-opacity:0.558824;stroke-width:0.333419"
               d="m -25.804034,-74.009445 1.253742,0.843 -3.146255,13.097727 -1.722094,-1.157914 2.657218,-10.005142 -8.263031,6.235863 -1.722094,-1.157915 z m -6.66073,5.408961 5.512142,3.706295 -1.027104,1.527548 -5.512142,-3.706296 z" />
            <path
               id="path1479"
               style="font-style:normal;font-variant:normal;font-weight:normal;font-stretch:normal;font-size:17.7823px;font-family:Bahnschrift;-inkscape-font-specification:'Bahnschrift, @wght=502,wdth=100.0';font-variant-ligatures:normal;font-variant-caps:normal;font-variant-numeric:normal;font-variant-east-asian:normal;font-variation-settings:'wdth' 100, 'wght' 502;fill:#4d4d4d;fill-opacity:0.558824;stroke-width:0.333419"
               d="m -17.295366,-65.970962 1.380244,1.345536 -8.091397,8.300116 -1.380244,-1.345536 z m -1.809191,-3.206676 6.441138,6.279167 -1.284926,1.318071 -6.441138,-6.279167 z" />
            <path
               id="path1481"
               style="font-style:normal;font-variant:normal;font-weight:normal;font-stretch:normal;font-size:17.7823px;font-family:Bahnschrift;-inkscape-font-specification:'Bahnschrift, @wght=502,wdth=100.0';font-variant-ligatures:normal;font-variant-caps:normal;font-variant-numeric:normal;font-variant-east-asian:normal;font-variation-settings:'wdth' 100, 'wght' 502;fill:#4d4d4d;fill-opacity:0.558824;stroke-width:0.333419"
               d="m -19.321524,-50.992377 -1.213997,-1.519539 9.863438,-7.880142 1.2139974,1.51954 z" />
            <path
               id="path1483"
               style="font-style:normal;font-variant:normal;font-weight:normal;font-stretch:normal;font-size:17.7823px;font-family:Bahnschrift;-inkscape-font-specification:'Bahnschrift, @wght=502,wdth=100.0';font-variant-ligatures:normal;font-variant-caps:normal;font-variant-numeric:normal;font-variant-east-asian:normal;font-variation-settings:'wdth' 100, 'wght' 502;fill:#4d4d4d;fill-opacity:0.558824;stroke-width:0.333419"
               d="m -15.419101,-44.936904 q -0.673602,-1.155085 -0.690328,-2.321335 -0.0092,-1.170624 0.618403,-2.179918 0.635128,-1.013667 1.835216,-1.713513 l 3.090226,-1.802102 q 1.2000872,-0.699845 2.3875917,-0.749069 1.195005,-0.0536 2.2018032,0.535281 1.0142988,0.584504 1.6879001,1.739588 0.6736014,1.155084 0.6828268,2.325709 0.016726,1.16625 -0.6184026,2.179917 -0.627628,1.009293 -1.8277156,1.709139 l -3.0902255,1.802102 q -1.2000881,0.699846 -2.3950931,0.753443 -1.187504,0.04922 -2.201803,-0.53528 -1.006798,-0.588878 -1.680399,-1.743962 z m 1.65012,-0.962288 q 0.376167,0.645047 0.9455,0.966369 0.573707,0.328823 1.251837,0.28516 0.690004,-0.04054 1.380054,-0.442948 l 3.1952335,-1.863339 q 0.6900504,-0.402411 1.0576234,-0.978613 0.3794477,-0.573076 0.3757822,-1.234325 7.085e-4,-0.653749 -0.3754585,-1.298796 -0.376167,-0.645048 -0.9498741,-0.97387 -0.5693331,-0.321323 -1.2593372,-0.280786 -0.6781295,0.04366 -1.3681799,0.446075 l -3.1952334,1.863339 q -0.69005,0.402411 -1.069498,0.975486 -0.367573,0.576203 -0.368281,1.229951 0.0037,0.66125 0.379832,1.306297 z" />
            <path
               id="path1485"
               style="font-style:normal;font-variant:normal;font-weight:normal;font-stretch:normal;font-size:17.7823px;font-family:Bahnschrift;-inkscape-font-specification:'Bahnschrift, @wght=502,wdth=100.0';font-variant-ligatures:normal;font-variant-caps:normal;font-variant-numeric:normal;font-variant-east-asian:normal;font-variation-settings:'wdth' 100, 'wght' 502;fill:#4d4d4d;fill-opacity:0.558824;stroke-width:0.333419"
               d="m 0.06415239,-42.595188 0.59471894,1.842661 -7.48139163,8.509315 -0.2788449,-0.128974 9.4777208,-3.058935 0.5787176,1.793082 -12.0062149,3.875007 -0.6000527,-1.859186 7.3462535,-8.447452 0.278845,0.128974 -9.3372491,3.013598 -0.578717,-1.793082 z" />
          </g>
          <g
             style="font-style:normal;font-variant:normal;font-weight:normal;font-stretch:normal;font-size:17.7823px;line-height:19.0525px;font-family:Bahnschrift;-inkscape-font-specification:'Bahnschrift, @wght=630,wdth=100.0';font-variant-ligatures:normal;font-variant-caps:normal;font-variant-numeric:normal;font-variant-east-asian:normal;font-variation-settings:'wdth' 100, 'wght' 630;letter-spacing:0px;word-spacing:0px;fill:#ffffff;fill-opacity:1;stroke:none;stroke-width:0.333419"
             id="text852"
             transform="matrix(0.73423017,0.8847965,-0.8847965,0.73423017,-31.881312,51.712178)"
             aria-label="THE AMINA AGBO FOUNDATION">
            <path
               id="path906"
               style="font-style:normal;font-variant:normal;font-weight:normal;font-stretch:normal;font-size:17.7823px;font-family:Bahnschrift;-inkscape-font-specification:'Bahnschrift, @wght=630,wdth=100.0';font-variant-ligatures:normal;font-variant-caps:normal;font-variant-numeric:normal;font-variant-east-asian:normal;font-variation-settings:'wdth' 100, 'wght' 630;fill:#ffffff;fill-opacity:1;stroke-width:0.333419"
               d="m -67.352194,49.681715 -2.163813,-0.172655 0.921973,-11.554765 2.163813,0.172654 z m 3.388574,1.306912 -9.105328,-0.726528 0.165057,-2.068606 9.105329,0.726528 z" />
            <path
               id="path908"
               style="font-style:normal;font-variant:normal;font-weight:normal;font-stretch:normal;font-size:17.7823px;font-family:Bahnschrift;-inkscape-font-specification:'Bahnschrift, @wght=630,wdth=100.0';font-variant-ligatures:normal;font-variant-caps:normal;font-variant-numeric:normal;font-variant-east-asian:normal;font-variation-settings:'wdth' 100, 'wght' 630;fill:#ffffff;fill-opacity:1;stroke-width:0.333419"
               d="m -83.714829,47.732416 -2.083891,-0.575916 3.362975,-12.168584 2.083891,0.575916 z m 6.753816,1.86652 -2.083891,-0.575915 3.362974,-12.168584 2.083891,0.575915 z m 0.359573,-5.440699 -6.971411,-1.926657 0.552787,-2.0002 6.97141,1.926656 z" />
            <path
               id="path910"
               style="font-style:normal;font-variant:normal;font-weight:normal;font-stretch:normal;font-size:17.7823px;font-family:Bahnschrift;-inkscape-font-specification:'Bahnschrift, @wght=630,wdth=100.0';font-variant-ligatures:normal;font-variant-caps:normal;font-variant-numeric:normal;font-variant-east-asian:normal;font-variation-settings:'wdth' 100, 'wght' 630;fill:#ffffff;fill-opacity:1;stroke-width:0.333419"
               d="m -90.932217,45.069231 -1.921799,-0.990439 5.783528,-11.222069 1.921799,0.990439 z m 4.068777,-9.77124 -6.645256,-3.424772 0.950663,-1.844618 6.645256,3.424772 z m -2.398533,4.653994 -5.796269,-2.987228 0.954641,-1.852336 5.796268,2.987228 z m -2.434333,4.723457 -6.645255,-3.424771 0.950662,-1.844618 6.645256,3.424771 z" />
            <path
               id="path912"
               style="font-style:normal;font-variant:normal;font-weight:normal;font-stretch:normal;font-size:17.7823px;font-family:Bahnschrift;-inkscape-font-specification:'Bahnschrift, @wght=630,wdth=100.0';font-variant-ligatures:normal;font-variant-caps:normal;font-variant-numeric:normal;font-variant-east-asian:normal;font-variation-settings:'wdth' 100, 'wght' 630;fill:#ffffff;fill-opacity:1;stroke-width:0.333419"
               d="m -109.62614,32.561386 -1.09329,-1.042707 5.26368,-12.425799 1.6902,1.612001 -4.02219,8.834409 8.634114,-4.435864 1.6902,1.612001 z m 7.5148,-4.243541 -4.8067,-4.584314 1.43821,-1.507986 4.80671,4.584315 z" />
            <path
               id="path914"
               style="font-style:normal;font-variant:normal;font-weight:normal;font-stretch:normal;font-size:17.7823px;font-family:Bahnschrift;-inkscape-font-specification:'Bahnschrift, @wght=630,wdth=100.0';font-variant-ligatures:normal;font-variant-caps:normal;font-variant-numeric:normal;font-variant-east-asian:normal;font-variation-settings:'wdth' 100, 'wght' 630;fill:#ffffff;fill-opacity:1;stroke-width:0.333419"
               d="m -121.70505,17.703448 -1.43426,-2.184799 10.55382,-6.9282752 1.1007,1.6767072 -8.09319,5.312948 0.41689,-0.377543 7.81401,-1.941004 0.98159,1.495245 -4.74315,6.302405 -0.65736,0.327673 8.0932,-5.312948 1.1007,1.676707 -10.55381,6.928275 -1.43426,-2.1848 5.49005,-7.031617 z" />
            <path
               id="path916"
               style="font-style:normal;font-variant:normal;font-weight:normal;font-stretch:normal;font-size:17.7823px;font-family:Bahnschrift;-inkscape-font-specification:'Bahnschrift, @wght=630,wdth=100.0';font-variant-ligatures:normal;font-variant-caps:normal;font-variant-numeric:normal;font-variant-east-asian:normal;font-variation-settings:'wdth' 100, 'wght' 630;fill:#ffffff;fill-opacity:1;stroke-width:0.333419"
               d="m -114.48309,3.9156035 0.88878,2.0373628 -11.57158,5.0480167 -0.88878,-2.0373628 z" />
            <path
               id="path918"
               style="font-style:normal;font-variant:normal;font-weight:normal;font-stretch:normal;font-size:17.7823px;font-family:Bahnschrift;-inkscape-font-specification:'Bahnschrift, @wght=630,wdth=100.0';font-variant-ligatures:normal;font-variant-caps:normal;font-variant-numeric:normal;font-variant-east-asian:normal;font-variation-settings:'wdth' 100, 'wght' 630;fill:#ffffff;fill-opacity:1;stroke-width:0.333419"
               d="m -127.87836,4.5506856 -0.61788,-2.3692964 8.07633,-7.4990821 0.27103,0.1446743 -9.61161,2.5065922 -0.52805,-2.0248242 12.20776,-3.1836351 0.62226,2.3860999 -7.93788,7.4450303 -0.27103,-0.1446743 9.46878,-2.46934388 0.52805,2.02482418 z" />
            <path
               id="path920"
               style="font-style:normal;font-variant:normal;font-weight:normal;font-stretch:normal;font-size:17.7823px;font-family:Bahnschrift;-inkscape-font-specification:'Bahnschrift, @wght=630,wdth=100.0';font-variant-ligatures:normal;font-variant-caps:normal;font-variant-numeric:normal;font-variant-east-asian:normal;font-variation-settings:'wdth' 100, 'wght' 630;fill:#ffffff;fill-opacity:1;stroke-width:0.333419"
               d="m -131.17489,-13.670059 -0.0608,-1.509576 12.42259,-5.271246 0.094,2.33377 -9.03327,3.553135 9.28986,2.814846 0.094,2.3337703 z m 8.35164,2.174844 -0.26743,-6.636929 2.08218,-0.0839 0.26742,6.63693 z" />
            <path
               id="path922"
               style="font-style:normal;font-variant:normal;font-weight:normal;font-stretch:normal;font-size:17.7823px;font-family:Bahnschrift;-inkscape-font-specification:'Bahnschrift, @wght=630,wdth=100.0';font-variant-ligatures:normal;font-variant-caps:normal;font-variant-numeric:normal;font-variant-east-asian:normal;font-variation-settings:'wdth' 100, 'wght' 630;fill:#ffffff;fill-opacity:1;stroke-width:0.333419"
               d="m -129.3029,-33.461495 0.36928,-1.464976 13.40694,-1.536464 -0.57089,2.26482 -9.66977,0.848798 8.11202,5.331043 -0.57089,2.264819 z m 7.39352,4.451491 1.62354,-6.440843 2.02065,0.509346 -1.62354,6.440843 z" />
            <path
               id="path924"
               style="font-style:normal;font-variant:normal;font-weight:normal;font-stretch:normal;font-size:17.7823px;font-family:Bahnschrift;-inkscape-font-specification:'Bahnschrift, @wght=630,wdth=100.0';font-variant-ligatures:normal;font-variant-caps:normal;font-variant-numeric:normal;font-variant-east-asian:normal;font-variation-settings:'wdth' 100, 'wght' 630;fill:#ffffff;fill-opacity:1;stroke-width:0.333419"
               d="m -117.45414,-48.382746 2.13628,1.027181 q 1.26768,0.609536 1.99343,1.584731 0.7217,0.963607 0.80606,2.150658 0.0803,1.175464 -0.50665,2.396193 -0.59073,1.228553 -1.53522,1.930533 -0.95232,0.698218 -2.10837,0.778222 -1.15229,0.07218 -2.34954,-0.503493 l -3.35701,-1.614141 q -1.26768,-0.609536 -1.98937,-1.573143 -0.71793,-0.971433 -0.79823,-2.146896 -0.0844,-1.187052 0.50259,-2.40778 0.48161,-1.001624 1.31053,-1.643565 0.82485,-0.653529 1.86262,-0.84821 1.04154,-0.202507 2.14881,0.07941 v 0 l -1.01589,2.1128 v 0 q -0.49059,-0.08174 -0.94657,0.06512 -0.46005,0.135266 -0.81627,0.455337 -0.35246,0.312245 -0.55563,0.734805 -0.29725,0.618189 -0.24129,1.223152 0.0559,0.604964 0.44825,1.111524 0.38823,0.494973 1.0612,0.818554 l 3.357,1.614141 q 0.60254,0.289717 1.18839,0.253478 0.58179,-0.04783 1.06171,-0.404762 0.47992,-0.356934 0.78469,-0.990773 0.30101,-0.626015 0.25694,-1.215628 -0.0403,-0.597438 -0.42854,-1.092411 -0.38447,-0.502798 -1.07308,-0.833904 l -0.29736,-0.142977 -0.92559,1.924995 -1.87022,-0.899254 z" />
            <path
               id="path926"
               style="font-style:normal;font-variant:normal;font-weight:normal;font-stretch:normal;font-size:17.7823px;font-family:Bahnschrift;-inkscape-font-specification:'Bahnschrift, @wght=630,wdth=100.0';font-variant-ligatures:normal;font-variant-caps:normal;font-variant-numeric:normal;font-variant-east-asian:normal;font-variation-settings:'wdth' 100, 'wght' 630;fill:#ffffff;fill-opacity:1;stroke-width:0.333419"
               d="m -110.84337,-49.545633 2.31272,-3.029951 q 0.61111,-0.800626 0.57157,-1.464347 -0.0343,-0.670623 -0.66236,-1.150026 l -0.0207,-0.01581 q -0.42792,-0.326626 -0.85114,-0.387511 -0.43012,-0.06615 -0.84701,0.150875 -0.41852,0.204857 -0.78729,0.687993 l -2.40755,3.154187 -1.62886,-1.243288 2.40755,-3.154187 q 0.50048,-0.655685 0.4464,-1.243118 -0.0557,-0.599602 -0.65618,-1.057933 v 0 q -0.57977,-0.442526 -1.16267,-0.308523 -0.58289,0.134003 -1.10971,0.824197 l -2.35487,3.085168 -1.64266,-1.253824 2.45496,-3.216305 q 0.74281,-0.973173 1.58349,-1.40196 0.84067,-0.428786 1.71835,-0.305016 0.87605,0.1116 1.72499,0.759585 v 0 q 0.55905,0.426722 0.846,0.995283 0.28004,0.563293 0.25183,1.229915 -0.0229,0.65972 -0.38827,1.353015 0.57966,-0.573394 1.25702,-0.788221 0.67736,-0.214826 1.37249,-0.06655 0.68822,0.143008 1.3232,0.62768 l 0.0207,0.0158 q 0.84894,0.647985 1.184,1.482655 0.34033,0.827768 0.15007,1.763932 -0.19716,0.930897 -0.9189,1.876462 l -2.54452,3.333638 z m -9.02494,-5.57786 1.31177,-1.718584 10.03542,7.659918 -1.31177,1.718584 z" />
            <path
               id="path928"
               style="font-style:normal;font-variant:normal;font-weight:normal;font-stretch:normal;font-size:17.7823px;font-family:Bahnschrift;-inkscape-font-specification:'Bahnschrift, @wght=630,wdth=100.0';font-variant-ligatures:normal;font-variant-caps:normal;font-variant-numeric:normal;font-variant-east-asian:normal;font-variation-settings:'wdth' 100, 'wght' 630;fill:#ffffff;fill-opacity:1;stroke-width:0.333419"
               d="m -99.446257,-58.955653 q -1.023123,0.88765 -2.179123,1.131907 -1.16169,0.2377 -2.27649,-0.186022 -1.12049,-0.43028 -2.0309,-1.479636 l -2.3443,-2.702093 q -0.91041,-1.049356 -1.17261,-2.212785 -0.26789,-1.169988 0.13703,-2.279965 0.39922,-1.116535 1.42234,-2.004184 1.02313,-0.88765 2.18482,-1.125349 1.156,-0.244258 2.27649,0.186023 1.1148,0.423721 2.02521,1.473078 l 2.344303,2.702092 q 0.910409,1.049356 1.178296,2.219344 0.262196,1.163429 -0.137029,2.279964 -0.404914,1.109977 -1.428037,1.997626 z m -1.411133,-1.626502 q 0.52468,-0.455205 0.71903,-1.026155 0.19436,-0.57095 0.0523,-1.171906 -0.14774,-0.607514 -0.6257,-1.158426 l -2.42397,-2.793911 q -0.47796,-0.550912 -1.05287,-0.776324 -0.58059,-0.231971 -1.17325,-0.120114 -0.59266,0.111857 -1.11734,0.567062 -0.52468,0.455205 -0.71904,1.026155 -0.19435,0.57095 -0.0466,1.178465 0.14205,0.600956 0.62001,1.151868 l 2.42397,2.79391 q 0.47796,0.550912 1.05856,0.782883 0.5749,0.225412 1.16756,0.113555 0.59266,-0.111857 1.11734,-0.567062 z" />
            <path
               id="path930"
               style="font-style:normal;font-variant:normal;font-weight:normal;font-stretch:normal;font-size:17.7823px;font-family:Bahnschrift;-inkscape-font-specification:'Bahnschrift, @wght=630,wdth=100.0';font-variant-ligatures:normal;font-variant-caps:normal;font-variant-numeric:normal;font-variant-east-asian:normal;font-variation-settings:'wdth' 100, 'wght' 630;fill:#ffffff;fill-opacity:1;stroke-width:0.333419"
               d="m -95.06284,-77.434413 1.960722,-0.910961 5.319428,11.449355 -1.960721,0.910961 z m 3.073988,4.555643 5.756175,-2.674348 0.878035,1.889852 -5.756175,2.674348 z m -2.286549,-4.92149 6.622357,-3.076781 0.874376,1.881978 -6.622357,3.07678 z" />
            <path
               id="path932"
               style="font-style:normal;font-variant:normal;font-weight:normal;font-stretch:normal;font-size:17.7823px;font-family:Bahnschrift;-inkscape-font-specification:'Bahnschrift, @wght=630,wdth=100.0';font-variant-ligatures:normal;font-variant-caps:normal;font-variant-numeric:normal;font-variant-east-asian:normal;font-variation-settings:'wdth' 100, 'wght' 630;fill:#ffffff;fill-opacity:1;stroke-width:0.333419"
               d="m -76.437784,-70.882117 q -1.314583,0.326453 -2.455489,0.01931 -1.142998,-0.315572 -1.943951,-1.199195 -0.803045,-0.89205 -1.137868,-2.240341 l -0.862169,-3.471848 q -0.334822,-1.348291 -0.04029,-2.503958 0.292441,-1.164093 1.157118,-1.969287 0.862584,-0.813622 2.177167,-1.140074 1.314584,-0.326452 2.457582,-0.01088 1.140905,0.307146 1.943951,1.199196 0.800953,0.883623 1.135775,2.231913 l 0.862169,3.471849 q 0.334823,1.348291 0.04238,2.512384 -0.294533,1.155667 -1.157117,1.969288 -0.864677,0.805194 -2.179261,1.131646 z m -0.518975,-2.08985 q 0.674146,-0.167412 1.106512,-0.587909 0.432367,-0.420497 0.578615,-1.020444 0.144156,-0.608373 -0.03163,-1.316226 l -0.891466,-3.589824 q -0.175782,-0.707852 -0.585703,-1.169684 -0.412014,-0.47026 -0.990866,-0.63964 -0.578851,-0.16938 -1.252997,-0.002 -0.674145,0.167411 -1.106511,0.587908 -0.432367,0.420497 -0.576523,1.028871 -0.146248,0.599947 0.02953,1.307799 l 0.891465,3.589824 q 0.175782,0.707853 0.587796,1.178112 0.409922,0.461832 0.988773,0.631212 0.578852,0.16938 1.252997,0.002 z" />
            <path
               id="path934"
               style="font-style:normal;font-variant:normal;font-weight:normal;font-stretch:normal;font-size:17.7823px;font-family:Bahnschrift;-inkscape-font-specification:'Bahnschrift, @wght=630,wdth=100.0';font-variant-ligatures:normal;font-variant-caps:normal;font-variant-numeric:normal;font-variant-east-asian:normal;font-variation-settings:'wdth' 100, 'wght' 630;fill:#ffffff;fill-opacity:1;stroke-width:0.333419"
               d="m -65.363955,-72.42834 q -1.440224,0.05666 -2.476827,-0.449991 -1.036944,-0.51533 -1.616162,-1.543969 -0.570883,-1.037657 -0.629253,-2.521261 l -0.316766,-8.051377 2.160337,-0.08499 0.319156,8.112108 q 0.04676,1.18862 0.697382,1.823423 0.650276,0.626127 1.778163,0.581752 1.136563,-0.04472 1.735638,-0.719996 0.607409,-0.684298 0.560645,-1.872917 l -0.319156,-8.112109 2.160337,-0.08499 0.316767,8.051376 q 0.05837,1.483605 -0.437902,2.563246 -0.487936,1.070624 -1.489865,1.66617 -1.002269,0.58687 -2.442494,0.643533 z" />
            <path
               id="path936"
               style="font-style:normal;font-variant:normal;font-weight:normal;font-stretch:normal;font-size:17.7823px;font-family:Bahnschrift;-inkscape-font-specification:'Bahnschrift, @wght=630,wdth=100.0';font-variant-ligatures:normal;font-variant-caps:normal;font-variant-numeric:normal;font-variant-east-asian:normal;font-variation-settings:'wdth' 100, 'wght' 630;fill:#ffffff;fill-opacity:1;stroke-width:0.333419"
               d="m -56.012961,-85.013389 2.410934,0.427479 3.44344,10.469292 -0.244599,0.185904 1.734172,-9.78053 2.060408,0.365328 -2.20258,12.422299 -2.428033,-0.430511 -3.452111,-10.32092 0.244599,-0.185904 -1.708402,9.63519 -2.060409,-0.365328 z" />
            <path
               id="path938"
               style="font-style:normal;font-variant:normal;font-weight:normal;font-stretch:normal;font-size:17.7823px;font-family:Bahnschrift;-inkscape-font-specification:'Bahnschrift, @wght=630,wdth=100.0';font-variant-ligatures:normal;font-variant-caps:normal;font-variant-numeric:normal;font-variant-east-asian:normal;font-variation-settings:'wdth' 100, 'wght' 630;fill:#ffffff;fill-opacity:1;stroke-width:0.333419"
               d="m -44.105571,-71.492325 2.746613,1.128752 q 1.156468,0.475264 2.025251,0.165795 0.872084,-0.317499 1.304442,-1.369564 l 1.41259,-3.437281 q 0.432358,-1.052065 0.03224,-1.883004 -0.39682,-0.838969 -1.553288,-1.314233 l -2.746613,-1.128752 0.788806,-1.919416 2.698427,1.108949 q 1.445585,0.59408 2.256168,1.499829 0.818614,0.909049 0.96251,2.066509 0.151928,1.16076 -0.392646,2.48588 l -1.359783,3.308785 q -0.528071,1.284965 -1.43624,2.010067 -0.900137,0.728402 -2.139338,0.819932 -1.227869,0.0868 -2.697548,-0.517183 l -2.690395,-1.105649 z m 2.901757,-10.213164 1.999727,0.82181 -4.798846,11.67712 -1.999726,-0.821811 z" />
            <path
               id="path940"
               style="font-style:normal;font-variant:normal;font-weight:normal;font-stretch:normal;font-size:17.7823px;font-family:Bahnschrift;-inkscape-font-specification:'Bahnschrift, @wght=630,wdth=100.0';font-variant-ligatures:normal;font-variant-caps:normal;font-variant-numeric:normal;font-variant-east-asian:normal;font-variation-settings:'wdth' 100, 'wght' 630;fill:#ffffff;fill-opacity:1;stroke-width:0.333419"
               d="m -25.804039,-74.009447 1.253743,0.843001 -3.08861,13.136486 -1.938257,-1.30326 2.471753,-9.386971 -7.760528,5.830866 -1.938257,-1.303259 z m -6.689798,5.452194 5.512143,3.706296 -1.16276,1.729299 -5.512143,-3.706295 z" />
            <path
               id="path942"
               style="font-style:normal;font-variant:normal;font-weight:normal;font-stretch:normal;font-size:17.7823px;font-family:Bahnschrift;-inkscape-font-specification:'Bahnschrift, @wght=630,wdth=100.0';font-variant-ligatures:normal;font-variant-caps:normal;font-variant-numeric:normal;font-variant-east-asian:normal;font-variation-settings:'wdth' 100, 'wght' 630;fill:#ffffff;fill-opacity:1;stroke-width:0.333419"
               d="m -17.382414,-66.055821 1.554329,1.515243 -8.091397,8.300117 -1.554329,-1.515243 z m -1.771888,-3.17031 6.540616,6.376142 -1.448572,1.485939 -6.540617,-6.376142 z" />
            <path
               id="path945"
               style="font-style:normal;font-variant:normal;font-weight:normal;font-stretch:normal;font-size:17.7823px;font-family:Bahnschrift;-inkscape-font-specification:'Bahnschrift, @wght=630,wdth=100.0';font-variant-ligatures:normal;font-variant-caps:normal;font-variant-numeric:normal;font-variant-east-asian:normal;font-variation-settings:'wdth' 100, 'wght' 630;fill:#ffffff;fill-opacity:1;stroke-width:0.333419"
               d="m -19.234813,-50.883843 -1.387425,-1.736616 9.863437,-7.880142 1.387425,1.736616 z" />
            <path
               id="path947"
               style="font-style:normal;font-variant:normal;font-weight:normal;font-stretch:normal;font-size:17.7823px;font-family:Bahnschrift;-inkscape-font-specification:'Bahnschrift, @wght=630,wdth=100.0';font-variant-ligatures:normal;font-variant-caps:normal;font-variant-numeric:normal;font-variant-east-asian:normal;font-variation-settings:'wdth' 100, 'wght' 630;fill:#ffffff;fill-opacity:1;stroke-width:0.333419"
               d="m -15.419105,-44.936912 q -0.682349,-1.170086 -0.707823,-2.351337 -0.01797,-1.185626 0.60528,-2.202419 0.630754,-1.021168 1.830842,-1.721014 l 3.090225,-1.802103 q 1.2000877,-0.699846 2.3919662,-0.741568 1.199379,-0.0461 2.2149254,0.557782 1.0230469,0.599504 1.7053965,1.76959 0.6823495,1.170085 0.7003231,2.35571 0.025474,1.181252 -0.6052802,2.20242 -0.6232538,1.016794 -1.8233414,1.716639 l -3.0902253,1.802103 q -1.2000873,0.699846 -2.3994663,0.745943 -1.191879,0.04172 -2.214926,-0.557782 -1.015546,-0.603879 -1.697896,-1.773964 z m 1.860136,-1.084761 q 0.349923,0.600044 0.874884,0.896985 0.524961,0.296942 1.141839,0.268895 0.624378,-0.03242 1.254424,-0.399839 l 3.1952332,-1.863339 q 0.630046,-0.367419 0.9582373,-0.890501 0.3356918,-0.527457 0.3357688,-1.130581 7.7e-5,-0.603124 -0.3498459,-1.203168 -0.3499228,-0.600043 -0.8748841,-0.896985 -0.5249613,-0.296941 -1.1493395,-0.264521 -0.6168776,0.02805 -1.2469236,0.395465 l -3.1952332,1.863339 q -0.630046,0.367419 -0.965738,0.894876 -0.328191,0.523082 -0.328268,1.126206 -7.7e-5,0.603124 0.349846,1.203168 z" />
            <path
               id="path949"
               style="font-style:normal;font-variant:normal;font-weight:normal;font-stretch:normal;font-size:17.7823px;font-family:Bahnschrift;-inkscape-font-specification:'Bahnschrift, @wght=630,wdth=100.0';font-variant-ligatures:normal;font-variant-caps:normal;font-variant-numeric:normal;font-variant-east-asian:normal;font-variation-settings:'wdth' 100, 'wght' 630;fill:#ffffff;fill-opacity:1;stroke-width:0.333419"
               d="m 0.04281402,-42.661301 0.75206639,2.330181 -7.63528391,7.94769 -0.278845,-0.128974 9.4529314,-3.050936 0.6427234,1.991396 -12.0062144,3.875009 -0.7574002,-2.346707 7.5001458,-7.885827 0.278845,0.128973 -9.3124595,3.005599 -0.642723,-1.991395 z" />
          </g>
          <g
             transform="matrix(-1.1201241,0.10184681,-0.1080676,-1.0556454,-135.72599,-11.401998)"
             inkscape:transform-center-y="13.77731"
             inkscape:transform-center-x="1.0159278"
             style="font-style:normal;font-variant:normal;font-weight:normal;font-stretch:normal;font-size:12.7px;line-height:5;font-family:Bahnschrift;-inkscape-font-specification:'Bahnschrift, @wght=450,wdth=100.0';font-variant-ligatures:normal;font-variant-caps:normal;font-variant-numeric:normal;font-variant-east-asian:normal;font-variation-settings:'wdth' 100, 'wght' 450;letter-spacing:0px;word-spacing:0px;fill:#1a1a1a;fill-opacity:1;stroke:none;stroke-width:0.406986"
             id="text874"
             aria-label="* VOICE OF HOPE *  ">
            <path
               id="path944"
               style="font-style:normal;font-variant:normal;font-weight:normal;font-stretch:normal;font-size:12.7px;font-family:Bahnschrift;-inkscape-font-specification:'Bahnschrift, @wght=450,wdth=100.0';font-variant-ligatures:normal;font-variant-caps:normal;font-variant-numeric:normal;font-variant-east-asian:normal;font-variation-settings:'wdth' 100, 'wght' 450;fill:#1a1a1a;stroke-width:0.406986"
               d="m -15.854452,-45.10635 -1.003768,-0.228596 0.535821,-2.314116 1.003769,0.228595 z m 1.907523,0.190837 -2.366235,0.207786 -0.08634,-1.025842 2.366234,-0.207786 z m -1.010279,1.683055 -0.942322,0.399894 -0.928274,-2.183763 0.947003,-0.403961 z m -2.85424,-0.0418 -0.671152,-0.772322 1.792722,-1.557884 0.671151,0.772321 z m 1.191091,-1.503348 -2.032928,-1.223813 0.527429,-0.877328 2.037608,1.219745 z" />
            <path
               id="path946"
               style="font-style:normal;font-variant:normal;font-weight:normal;font-stretch:normal;font-size:12.7px;font-family:Bahnschrift;-inkscape-font-specification:'Bahnschrift, @wght=450,wdth=100.0';font-variant-ligatures:normal;font-variant-caps:normal;font-variant-numeric:normal;font-variant-east-asian:normal;font-variation-settings:'wdth' 100, 'wght' 450;fill:#1a1a1a;stroke-width:0.406986"
               d="m -25.276372,-47.928353 -1.084926,-0.916258 2.847505,-6.677839 -6.107021,3.925063 -1.089664,-0.92026 8.072771,-4.984033 0.928583,0.784221 z" />
            <path
               id="path948"
               style="font-style:normal;font-variant:normal;font-weight:normal;font-stretch:normal;font-size:12.7px;font-family:Bahnschrift;-inkscape-font-specification:'Bahnschrift, @wght=450,wdth=100.0';font-variant-ligatures:normal;font-variant-caps:normal;font-variant-numeric:normal;font-variant-east-asian:normal;font-variation-settings:'wdth' 100, 'wght' 450;fill:#1a1a1a;stroke-width:0.406986"
               d="m -28.308948,-61.787795 q 0.794041,0.519309 1.177234,1.258954 0.374608,0.741441 0.296061,1.586635 -0.08713,0.84699 -0.630198,1.67736 l -1.398399,2.138202 q -0.543067,0.830369 -1.28072,1.244503 -0.746237,0.41593 -1.57227,0.364734 -0.834617,-0.0494 -1.628658,-0.568709 -0.794041,-0.519308 -1.16865,-1.26075 -0.383192,-0.739645 -0.301251,-1.590029 0.07855,-0.845194 0.621614,-1.675564 l 1.398399,-2.138201 q 0.543067,-0.83037 1.289304,-1.2463 0.742843,-0.41074 1.57746,-0.361339 0.826033,0.0512 1.620074,0.570504 z m -0.712776,1.089861 q -0.456703,-0.298688 -0.936793,-0.323694 -0.483484,-0.01982 -0.914698,0.231659 -0.439797,0.253271 -0.762244,0.746303 l -1.445917,2.21086 q -0.322446,0.493032 -0.374803,0.992282 -0.06094,0.501047 0.154403,0.930859 0.21195,0.435002 0.668654,0.733689 0.456703,0.298687 0.940187,0.318504 0.48009,0.02501 0.919888,-0.228265 0.431213,-0.251476 0.75366,-0.744508 l 1.445917,-2.210859 q 0.322446,-0.493032 0.383387,-0.994079 0.05236,-0.49925 -0.159593,-0.934252 -0.215344,-0.429812 -0.672048,-0.728499 z" />
            <path
               id="path950"
               style="font-style:normal;font-variant:normal;font-weight:normal;font-stretch:normal;font-size:12.7px;font-family:Bahnschrift;-inkscape-font-specification:'Bahnschrift, @wght=450,wdth=100.0';font-variant-ligatures:normal;font-variant-caps:normal;font-variant-numeric:normal;font-variant-east-asian:normal;font-variation-settings:'wdth' 100, 'wght' 450;fill:#1a1a1a;stroke-width:0.406986"
               d="m -33.885186,-64.933671 1.172473,0.621585 -4.223297,7.966248 -1.172474,-0.621586 z" />
            <path
               id="path952"
               style="font-style:normal;font-variant:normal;font-weight:normal;font-stretch:normal;font-size:12.7px;font-family:Bahnschrift;-inkscape-font-specification:'Bahnschrift, @wght=450,wdth=100.0';font-variant-ligatures:normal;font-variant-caps:normal;font-variant-numeric:normal;font-variant-east-asian:normal;font-variation-settings:'wdth' 100, 'wght' 450;fill:#1a1a1a;stroke-width:0.406986"
               d="m -38.519729,-67.19362 q 0.874326,0.368425 1.37257,1.022505 0.495837,0.659795 0.559669,1.514389 0.05812,0.852185 -0.334387,1.783657 l -0.960793,2.280104 q -0.392504,0.931471 -1.04299,1.485064 -0.656201,0.551186 -1.47471,0.65714 -0.81851,0.105954 -1.692835,-0.26247 -0.725748,-0.305816 -1.195743,-0.867242 -0.469996,-0.561426 -0.629214,-1.301441 -0.164932,-0.742423 0.0068,-1.565066 v 0 l 1.251486,0.527353 v 0 q -0.06329,0.437648 0.06052,0.846471 0.118102,0.406415 0.385428,0.714209 0.261612,0.305386 0.621628,0.45709 0.497166,0.209496 0.975462,0.128413 0.470174,-0.07778 0.858906,-0.425393 0.386324,-0.341903 0.629532,-0.919073 l 0.960793,-2.280104 q 0.2408,-0.571455 0.218085,-1.092449 -0.02512,-0.515279 -0.295433,-0.91181 -0.278432,-0.393225 -0.775598,-0.602721 -0.365731,-0.154112 -0.762191,-0.139483 -0.402174,0.01222 -0.775524,0.211547 -0.373349,0.199327 -0.651995,0.573145 v 0 l -1.251486,-0.527353 v 0 q 0.468842,-0.697426 1.115375,-1.097913 0.646534,-0.400486 1.376593,-0.456232 0.73006,-0.05575 1.450093,0.247663 z" />
            <path
               id="path954"
               style="font-style:normal;font-variant:normal;font-weight:normal;font-stretch:normal;font-size:12.7px;font-family:Bahnschrift;-inkscape-font-specification:'Bahnschrift, @wght=450,wdth=100.0';font-variant-ligatures:normal;font-variant-caps:normal;font-variant-numeric:normal;font-variant-east-asian:normal;font-variation-settings:'wdth' 100, 'wght' 450;fill:#1a1a1a;stroke-width:0.406986"
               d="m -45.488036,-60.165559 -1.264051,-0.361216 2.477393,-8.669479 1.264051,0.361216 z m 1.541224,-7.627772 -5.008502,-1.431231 0.34588,-1.210388 5.008503,1.431231 z m -1.056385,3.696752 -4.352627,-1.243808 0.344177,-1.204426 4.352627,1.243808 z m -1.075127,3.762339 -5.008502,-1.431231 0.345881,-1.210388 5.008502,1.431231 z" />
            <path
               id="path956"
               style="font-style:normal;font-variant:normal;font-weight:normal;font-stretch:normal;font-size:12.7px;font-family:Bahnschrift;-inkscape-font-specification:'Bahnschrift, @wght=450,wdth=100.0';font-variant-ligatures:normal;font-variant-caps:normal;font-variant-numeric:normal;font-variant-east-asian:normal;font-variation-settings:'wdth' 100, 'wght' 450;fill:#1a1a1a;stroke-width:0.406986"
               d="m -56.688412,-71.799013 q 0.943831,0.09678 1.623837,0.577924 0.673205,0.486684 0.991475,1.273594 0.311469,0.792446 0.210266,1.779458 l -0.260599,2.541558 q -0.101204,0.987012 -0.566375,1.693592 -0.471973,0.712115 -1.229303,1.045886 -0.764132,0.339306 -1.707963,0.24253 -0.943831,-0.09677 -1.617036,-0.58346 -0.680006,-0.481147 -0.997644,-1.274226 -0.31827,-0.786909 -0.217066,-1.773922 l 0.260598,-2.541557 q 0.101204,-0.987013 0.573177,-1.699129 0.47134,-0.705947 1.235472,-1.045253 0.75733,-0.33377 1.701161,-0.236995 z m -0.13283,1.295454 q -0.542857,-0.05566 -0.980836,0.142544 -0.438613,0.204374 -0.706232,0.625759 -0.274421,0.426921 -0.33451,1.01296 l -0.269455,2.627921 q -0.06009,0.586039 0.122616,1.053598 0.175904,0.473095 0.564547,0.756058 0.388011,0.289132 0.930868,0.344794 0.542857,0.05566 0.981469,-0.148712 0.43798,-0.198205 0.712401,-0.625127 0.267619,-0.421385 0.327708,-1.007423 l 0.269455,-2.627921 q 0.06009,-0.586039 -0.115815,-1.059134 -0.182705,-0.467559 -0.570715,-0.756691 -0.388644,-0.282964 -0.931501,-0.338626 z" />
            <path
               id="path958"
               style="font-style:normal;font-variant:normal;font-weight:normal;font-stretch:normal;font-size:12.7px;font-family:Bahnschrift;-inkscape-font-specification:'Bahnschrift, @wght=450,wdth=100.0';font-variant-ligatures:normal;font-variant-caps:normal;font-variant-numeric:normal;font-variant-east-asian:normal;font-variation-settings:'wdth' 100, 'wght' 450;fill:#1a1a1a;stroke-width:0.406986"
               d="m -61.629367,-63.050891 -1.314469,0.02172 -0.148928,-9.015274 1.314469,-0.02171 z m -0.685995,-3.982767 -4.402231,0.07272 -0.02069,-1.252466 4.402231,-0.07272 z m 0.06596,3.99301 -5.084267,0.08399 -0.02079,-1.258666 5.084267,-0.08399 z" />
            <path
               id="path960"
               style="font-style:normal;font-variant:normal;font-weight:normal;font-stretch:normal;font-size:12.7px;font-family:Bahnschrift;-inkscape-font-specification:'Bahnschrift, @wght=450,wdth=100.0';font-variant-ligatures:normal;font-variant-caps:normal;font-variant-numeric:normal;font-variant-east-asian:normal;font-variation-settings:'wdth' 100, 'wght' 450;fill:#1a1a1a;stroke-width:0.406986"
               d="m -75.543427,-61.633194 -1.296112,0.254439 -1.736876,-8.847632 1.296111,-0.25444 z m 5.001894,-0.98192 -1.290027,0.253244 -1.736876,-8.847632 1.290026,-0.253245 z m -1.532533,-3.718371 -4.941044,0.969975 -0.242494,-1.235261 4.941044,-0.969975 z" />
            <path
               id="path962"
               style="font-style:normal;font-variant:normal;font-weight:normal;font-stretch:normal;font-size:12.7px;font-family:Bahnschrift;-inkscape-font-specification:'Bahnschrift, @wght=450,wdth=100.0';font-variant-ligatures:normal;font-variant-caps:normal;font-variant-numeric:normal;font-variant-east-asian:normal;font-variation-settings:'wdth' 100, 'wght' 450;fill:#1a1a1a;stroke-width:0.406986"
               d="m -83.585832,-68.768056 q 0.898811,-0.303842 1.717207,-0.148469 0.814507,0.163233 1.430774,0.74696 0.612378,0.591588 0.930121,1.531522 l 0.81819,2.420329 q 0.317743,0.939933 0.187938,1.775869 -0.133694,0.843797 -0.684077,1.461884 -0.554272,0.625947 -1.453083,0.929789 -0.898812,0.303842 -1.713318,0.140609 -0.818396,-0.155373 -1.436649,-0.744975 -0.616267,-0.583727 -0.93401,-1.523661 l -0.818189,-2.420329 q -0.317744,-0.939933 -0.18405,-1.78373 0.13568,-0.837922 0.689952,-1.463869 0.550382,-0.618087 1.449194,-0.921929 z m 0.417038,1.233663 q -0.516963,0.174759 -0.833111,0.536922 -0.314161,0.368039 -0.382661,0.862501 -0.07239,0.502323 0.11627,1.060409 l 0.845992,2.502573 q 0.18866,0.558085 0.549005,0.907577 0.356455,0.357353 0.827502,0.453407 0.473033,0.101928 0.989997,-0.07283 0.516963,-0.174759 0.831125,-0.542797 0.316147,-0.362164 0.388536,-0.864487 0.0685,-0.494462 -0.12016,-1.052548 l -0.845991,-2.502573 q -0.188661,-0.558086 -0.545116,-0.915438 -0.360344,-0.349492 -0.833377,-0.45142 -0.471047,-0.09605 -0.988011,0.0787 z" />
            <path
               id="path964"
               style="font-style:normal;font-variant:normal;font-weight:normal;font-stretch:normal;font-size:12.7px;font-family:Bahnschrift;-inkscape-font-specification:'Bahnschrift, @wght=450,wdth=100.0';font-variant-ligatures:normal;font-variant-caps:normal;font-variant-numeric:normal;font-variant-east-asian:normal;font-variation-settings:'wdth' 100, 'wght' 450;fill:#1a1a1a;stroke-width:0.406986"
               d="m -86.853431,-62.339552 -2.594346,1.258651 q -0.357071,0.173234 -0.543671,0.470536 -0.192179,0.30001 -0.188367,0.677244 -0.0018,0.379941 0.190415,0.776067 v 0 q 0.194888,0.401705 0.4944,0.63548 0.29664,0.242061 0.651226,0.276806 0.349006,0.03745 0.706077,-0.135782 l 2.594346,-1.258651 0.549476,1.132585 -2.555291,1.239704 q -0.73088,0.354588 -1.434804,0.310121 -0.706797,-0.03618 -1.287039,-0.45081 -0.580243,-0.414631 -0.940244,-1.156669 v 0 q -0.360002,-0.742039 -0.326528,-1.454414 0.03618,-0.706797 0.445231,-1.284333 0.403472,-0.574829 1.134352,-0.929416 l 2.555291,-1.239704 z m 2.456534,3.543311 -1.182798,0.573836 -3.935655,-8.112211 1.182799,-0.573836 z" />
            <path
               id="path966"
               style="font-style:normal;font-variant:normal;font-weight:normal;font-stretch:normal;font-size:12.7px;font-family:Bahnschrift;-inkscape-font-specification:'Bahnschrift, @wght=450,wdth=100.0';font-variant-ligatures:normal;font-variant-caps:normal;font-variant-numeric:normal;font-variant-east-asian:normal;font-variation-settings:'wdth' 100, 'wght' 450;fill:#1a1a1a;stroke-width:0.406986"
               d="m -90.39247,-55.804033 -1.104806,0.712534 -4.88691,-7.577298 1.104805,-0.712534 z m -4.720549,-6.186655 -4.377531,2.823249 -0.68229,-1.057903 4.377536,-2.823249 z m 2.083827,3.231035 -3.804283,2.453538 -0.678924,-1.052692 3.804283,-2.453538 z m 2.120798,3.28836 -4.377531,2.823249 -0.682285,-1.057903 4.377531,-2.823249 z" />
            <path
               id="path968"
               style="font-style:normal;font-variant:normal;font-weight:normal;font-stretch:normal;font-size:12.7px;font-family:Bahnschrift;-inkscape-font-specification:'Bahnschrift, @wght=450,wdth=100.0';font-variant-ligatures:normal;font-variant-caps:normal;font-variant-numeric:normal;font-variant-east-asian:normal;font-variation-settings:'wdth' 100, 'wght' 450;fill:#1a1a1a;stroke-width:0.406986"
               d="m -104.73082,-52.427963 -0.21671,1.006402 -2.32029,-0.508408 0.2167,-1.006403 z m 0.16826,-1.909647 0.23576,2.363611 -1.02475,0.09847 -0.23576,-2.363611 z m 1.69489,0.990298 0.41101,0.937525 -2.17263,0.954043 -0.41514,-0.942158 z m -0.008,2.854535 -0.76433,0.680241 -1.57898,-1.774167 0.76433,-0.680241 z m -1.51733,-1.173223 -1.19968,2.047262 -0.88351,-0.517013 1.19556,-2.051895 z" />
          </g>
        </g>
        <g
           id="g1106"
           transform="translate(1.0841097,16.132181)">
          <g
             id="g1077">
            <g
               id="g1049">
              <g
                 id="g1044"
                 transform="translate(-3.1394925,-0.822702)">
                <g
                   transform="matrix(0.79824499,-0.15713957,0.15713957,0.79824499,-13.046758,-9.2822826)"
                   id="g975">
                  <path
                     style="fill:#1a1a1a;fill-opacity:1;stroke:none;stroke-width:0.186834;stroke-linecap:butt;stroke-linejoin:miter;stroke-miterlimit:4;stroke-dasharray:none;stroke-opacity:1"
                     d="m -111.96365,-54.1728 c 0,0 -3.62955,9.335166 -4.20049,16.25042 -0.42008,5.088095 -0.38827,22.313916 1.15981,25.939499 1.42246,3.3314173 14.02867,7.2239979 18.564962,13.4573763 1.875527,2.5772013 2.573346,5.6685028 2.573346,5.6685028 l 18.049479,-1.4800106 c 0,0 0.402792,-10.3839187 -4.921288,-15.8842095 -3.086825,-3.188992 -5.701461,-5.456989 -9.138575,-8.264907 -5.201338,-4.249185 -11.977484,-11.719298 -11.977484,-11.719298 l -1.73222,-20.81542 c -0.61637,-1.797873 -1.60447,-0.685382 -1.60447,-0.685382 -0.923,-3.568577 -2.14741,-1.002718 -2.14741,-1.002718 -1.00786,-4.897562 -2.73736,-1.349734 -2.73736,-1.349734 -0.90245,-1.956348 -1.8883,-0.114103 -1.8883,-0.114103 z"
                     id="path1582"
                     sodipodi:nodetypes="csssccsscccsccc" />
                  <path
                     style="fill:#1a1a1a;fill-opacity:1;stroke:#808080;stroke-width:0.186834;stroke-linecap:butt;stroke-linejoin:miter;stroke-miterlimit:4;stroke-dasharray:none;stroke-opacity:1"
                     d="m -101.85389,-30.205427 -6.57628,-4.929358 c 0,0 -3.79612,-1.743007 -3.75468,0.999731 0.0369,2.442052 1.40628,3.890136 1.40628,3.890136 l 12.886846,15.351244"
                     id="path1584"
                     sodipodi:nodetypes="ccscc" />
                  <path
                     style="fill:none;stroke:#808080;stroke-width:0.0435544;stroke-linecap:butt;stroke-linejoin:miter;stroke-miterlimit:4;stroke-dasharray:none;stroke-opacity:1"
                     d="m -110.07535,-54.058681 c -1.30685,11.976131 -1.65332,18.6361 -1.65332,18.6361"
                     id="path2041"
                     sodipodi:nodetypes="cc" />
                  <path
                     sodipodi:nodetypes="cc"
                     id="path2043"
                     d="m -107.33775,-52.708897 c 0.3805,11.902449 -0.075,18.309241 -0.075,18.309241"
                     style="fill:none;stroke:#808080;stroke-width:0.0418072;stroke-linecap:butt;stroke-linejoin:miter;stroke-miterlimit:4;stroke-dasharray:none;stroke-opacity:1" />
                  <path
                     style="fill:none;stroke:#808080;stroke-width:0.0423976;stroke-linecap:butt;stroke-linejoin:miter;stroke-miterlimit:4;stroke-dasharray:none;stroke-opacity:1"
                     d="m -105.19067,-51.706245 c 0.92506,12.816251 0.30631,18.853746 0.30631,18.853746"
                     id="path2045"
                     sodipodi:nodetypes="cc" />
                </g>
                <g
                   transform="matrix(1.144561,0,0,1.144561,13.996163,10.854574)"
                   id="g985">
                  <path
                     style="fill:#2fb000;fill-opacity:1;stroke:none;stroke-width:0.213129px;stroke-linecap:butt;stroke-linejoin:miter;stroke-opacity:1"
                     d="m -99.432031,-61.808269 c -8.858789,39.513011 30.899796,46.349283 30.899796,46.349283 0,0 -11.757663,-8.23265 -10.678693,-22.542064 0.826439,-10.960309 -6.003709,-13.999576 -11.003015,-16.541804 -6.332181,-3.220031 -9.218088,-7.265415 -9.218088,-7.265415 z"
                     id="path1558"
                     sodipodi:nodetypes="ccssc" />
                  <path
                     style="fill:#ecf000;fill-opacity:1;stroke:none;stroke-width:0.222656px;stroke-linecap:butt;stroke-linejoin:miter;stroke-opacity:1"
                     d="m -82.544753,-67.231965 c 0,0 -5.627274,5.091725 0.714315,14.198546 4.586028,6.585761 5.197914,13.496332 4.557201,16.509911 -0.90057,4.235786 2.565823,10.905492 3.458195,12.214962 1.852897,2.718951 7.709599,8.43292 7.709599,8.43292 0,0 -6.046735,-10.264688 -0.978273,-17.030044 4.973434,-6.63852 7.324042,-9.503262 7.324042,-9.503262 0,0 5.999577,-7.449026 3.697595,-14.309711 -1.575603,-4.695851 -5.624938,-8.996545 -5.624938,-8.996545 0,0 2.264269,9.429557 -8.36086,4.21935 -10.62512,-5.210207 -12.496876,-5.736127 -12.496876,-5.736127 z"
                     id="path1560"
                     sodipodi:nodetypes="cssscscscsc" />
                  <path
                     style="fill:#1a1a1a;fill-opacity:1;stroke:none;stroke-width:0.188009px;stroke-linecap:butt;stroke-linejoin:miter;stroke-opacity:1"
                     d="m -83.68975,-52.763755 c 0,0 -3.94002,-1.965921 -5.846011,-3.056222 -1.888305,-1.080186 -3.707327,-1.798039 -5.529552,-3.448393 -1.598127,-1.447392 -5.481967,-3.840537 -1.571323,-8.343987 1.759525,-2.026232 5.188053,-1.924628 6.9737,-1.487099 3.312354,0.811612 3.391019,4.988349 3.391019,4.988349 -1.73401,6.100971 2.582167,11.347352 2.582167,11.347352 z"
                     id="path1562"
                     sodipodi:nodetypes="csssscc" />
                  <path
                     style="fill:#1a1a1a;fill-opacity:1;stroke:none;stroke-width:0.226749px;stroke-linecap:butt;stroke-linejoin:miter;stroke-opacity:1"
                     d="m -81.689127,-80.963956 c 1.703882,2.432633 2.301435,3.932665 2.269545,6.355823 -0.03588,2.726239 -2.282525,6.358058 -2.282525,6.358058 0,0 3.333565,1.165844 5.170366,2.10144 2.647369,1.348459 8.802118,4.939811 11.020064,4.734297 2.217938,-0.205521 3.102224,-1.15306 2.431468,-5.203252 l -6.525507,-3.474272 c -1.667538,-0.887822 -0.873329,-3.437563 -0.341118,-4.046051 0.569787,-0.65145 3.90583,0.255525 3.684678,-3.782952 -0.24828,-4.533961 -0.326349,-3.905556 -2.844128,-7.684868 -1.331649,-1.998873 -10.727156,0.969441 -12.582843,4.641777 z"
                     id="path1566"
                     sodipodi:nodetypes="cscsscssssc" />
                  <path
                     style="fill:#2fb000;fill-opacity:1;stroke:none;stroke-width:0.226749px;stroke-linecap:butt;stroke-linejoin:miter;stroke-opacity:1"
                     d="m -82.286808,-81.956284 c 0,0 -1.836587,-2.052035 -5.122779,-3.101964 0,0 -2.010939,-0.84545 0.1,-2.182533 0.941178,-0.596151 2.48378,-0.943514 5.177073,-0.950221 6.662211,-0.01659 11.562876,1.093951 11.562876,1.093951 0,0 -8.197627,0.147968 -11.717157,5.140768 z"
                     id="path1570"
                     sodipodi:nodetypes="ccssccc" />
                  <path
                     style="fill:#ecf000;fill-opacity:1;stroke:none;stroke-width:0.226749px;stroke-linecap:butt;stroke-linejoin:miter;stroke-opacity:1"
                     d="m -82.435341,-89.089406 c 0,0 2.142933,-1.973014 3.179824,-2.469334 0,0 5.854157,0.255212 7.41359,0.860015 0.631829,0.245044 2.13843,3.237071 2.13843,3.237071 0,0 -3.367464,-1.445971 -12.731844,-1.627752 z"
                     id="path1574"
                     sodipodi:nodetypes="ccscc" />
                  <g
                     style="font-style:normal;font-variant:normal;font-weight:normal;font-stretch:normal;font-size:9.77376px;line-height:1.25;font-family:Bahnschrift;-inkscape-font-specification:'Bahnschrift, Normal';font-variant-ligatures:normal;font-variant-caps:normal;font-variant-numeric:normal;font-variant-east-asian:normal;letter-spacing:1.15086px;word-spacing:0px;stroke-width:0.244344"
                     id="text2053"
                     aria-label="TAAF">
                    <path
                       id="path909"
                       style="font-style:normal;font-variant:normal;font-weight:normal;font-stretch:normal;font-size:9.77376px;font-family:Bahnschrift;-inkscape-font-specification:'Bahnschrift, Normal';font-variant-ligatures:normal;font-variant-caps:normal;font-variant-numeric:normal;font-variant-east-asian:normal;letter-spacing:0.627633px;stroke-width:0.244344"
                       d="m -79.560649,-56.90511 h 0.973558 v 6.371079 h -0.973558 z m -1.961434,-0.567909 h 4.896425 v 0.925835 h -4.896425 z" />
                    <path
                       id="path911"
                       style="font-style:normal;font-variant:normal;font-weight:normal;font-stretch:normal;font-size:9.77376px;font-family:Bahnschrift;-inkscape-font-specification:'Bahnschrift, Normal';font-variant-ligatures:normal;font-variant-caps:normal;font-variant-numeric:normal;font-variant-east-asian:normal;letter-spacing:0.627633px;stroke-width:0.244344"
                       d="m -73.56413,-57.473019 h 0.830388 l 2.557976,6.938988 h -1.049915 l -1.923255,-5.597959 -1.923254,5.597959 h -1.049916 z m -1.379207,4.490776 h 3.650843 v 0.925834 h -3.650843 z" />
                    <path
                       id="path913"
                       style="font-style:normal;font-variant:normal;font-weight:normal;font-stretch:normal;font-size:9.77376px;font-family:Bahnschrift;-inkscape-font-specification:'Bahnschrift, Normal';font-variant-ligatures:normal;font-variant-caps:normal;font-variant-numeric:normal;font-variant-east-asian:normal;letter-spacing:0.627633px;stroke-width:0.244344"
                       d="m -66.503378,-57.473019 h 0.830388 l 2.557976,6.938988 h -1.049915 l -1.923255,-5.597959 -1.923254,5.597959 h -1.049916 z m -1.379207,4.490776 h 3.650843 v 0.925834 h -3.650843 z" />
                    <path
                       id="path915"
                       style="font-style:normal;font-variant:normal;font-weight:normal;font-stretch:normal;font-size:9.77376px;font-family:Bahnschrift;-inkscape-font-specification:'Bahnschrift, Normal';font-variant-ligatures:normal;font-variant-caps:normal;font-variant-numeric:normal;font-variant-east-asian:normal;letter-spacing:0.627633px;stroke-width:0.244344"
                       d="m -61.42792,-57.473019 h 0.973558 v 6.938988 h -0.973558 z m 0.477235,3.092479 h 3.364502 v 0.925835 h -3.364502 z m 0,-3.092479 h 3.88946 v 0.925835 h -3.88946 z" />
                  </g>
                </g>
                <g
                   id="g1021"
                   transform="matrix(-0.79824499,-0.15713957,-0.15713957,0.79824499,-132.30735,-9.2822826)">
                  <path
                     sodipodi:nodetypes="csssccsscccsccc"
                     id="path1011"
                     d="m -111.96365,-54.1728 c 0,0 -3.62955,9.335166 -4.20049,16.25042 -0.42008,5.088095 -0.38827,22.313916 1.15981,25.939499 1.42246,3.3314173 14.02867,7.2239979 18.564962,13.4573763 1.875527,2.5772013 2.573346,5.6685028 2.573346,5.6685028 l 18.049479,-1.4800106 c 0,0 0.402792,-10.3839187 -4.921288,-15.8842095 -3.086825,-3.188992 -5.701461,-5.456989 -9.138575,-8.264907 -5.201338,-4.249185 -11.977484,-11.719298 -11.977484,-11.719298 l -1.73222,-20.81542 c -0.61637,-1.797873 -1.60447,-0.685382 -1.60447,-0.685382 -0.923,-3.568577 -2.14741,-1.002718 -2.14741,-1.002718 -1.00786,-4.897562 -2.73736,-1.349734 -2.73736,-1.349734 -0.90245,-1.956348 -1.8883,-0.114103 -1.8883,-0.114103 z"
                     style="fill:#1a1a1a;fill-opacity:1;stroke:none;stroke-width:0.186834;stroke-linecap:butt;stroke-linejoin:miter;stroke-miterlimit:4;stroke-dasharray:none;stroke-opacity:1" />
                  <path
                     sodipodi:nodetypes="ccscc"
                     id="path1013"
                     d="m -101.85389,-30.205427 -6.57628,-4.929358 c 0,0 -3.79612,-1.743007 -3.75468,0.999731 0.0369,2.442052 1.40628,3.890136 1.40628,3.890136 l 12.886846,15.351244"
                     style="fill:#1a1a1a;fill-opacity:1;stroke:#808080;stroke-width:0.186834;stroke-linecap:butt;stroke-linejoin:miter;stroke-miterlimit:4;stroke-dasharray:none;stroke-opacity:1" />
                  <path
                     sodipodi:nodetypes="cc"
                     id="path1015"
                     d="m -110.07535,-54.058681 c -1.30685,11.976131 -1.65332,18.6361 -1.65332,18.6361"
                     style="fill:none;stroke:#808080;stroke-width:0.0435544;stroke-linecap:butt;stroke-linejoin:miter;stroke-miterlimit:4;stroke-dasharray:none;stroke-opacity:1" />
                  <path
                     style="fill:none;stroke:#808080;stroke-width:0.0418072;stroke-linecap:butt;stroke-linejoin:miter;stroke-miterlimit:4;stroke-dasharray:none;stroke-opacity:1"
                     d="m -107.33775,-52.708897 c 0.3805,11.902449 -0.075,18.309241 -0.075,18.309241"
                     id="path1017"
                     sodipodi:nodetypes="cc" />
                  <path
                     sodipodi:nodetypes="cc"
                     id="path1019"
                     d="m -105.19067,-51.706245 c 0.92506,12.816251 0.30631,18.853746 0.30631,18.853746"
                     style="fill:none;stroke:#808080;stroke-width:0.0423976;stroke-linecap:butt;stroke-linejoin:miter;stroke-miterlimit:4;stroke-dasharray:none;stroke-opacity:1" />
                </g>
              </g>
            </g>
          </g>
        </g>
      </g>
    </g>
  </g>
</svg>
